<svg xmlns="http://www.w3.org/2000/svg" width="880" height="144" viewBox="0 0 440 72" role="img" aria-label="goSignals">
  <title>goSignals</title>
  <style>
    .gs-word {
      font-family: 'JetBrains Mono', ui-monospace, SFMono-Regular, Menlo, Consolas, monospace;
      font-weight: 500;
      font-size: 56px;
      letter-spacing: -0.5px;
    }
  </style>
  <defs>
    <clipPath id="hero-primary-clip">
      <rect x="0" y="4" width="64" height="64"/>
    </clipPath>
  </defs>

  <!-- Badge (waves + routing mark + border), inset 4 from top so the 64x64 badge centers in the 72-tall viewBox -->
  <g transform="translate(0 4)">
    <rect width="64" height="64" fill="#000000"/>
    <g clip-path="url(#hero-primary-clip)" stroke="#2E7C4A" stroke-width="1.1" fill="none" stroke-linecap="round" opacity="0.9" transform="translate(0 -4)">
      <path d="M4.00 9.00 L5.17 9.85 L6.33 10.61 L7.50 11.19 L8.67 11.53 L9.83 11.59 L11.00 11.37 L12.17 10.88 L13.33 10.19 L14.50 9.37 L15.67 8.51 L16.83 7.70 L18.00 7.04 L19.17 6.59 L20.33 6.40 L21.50 6.51 L22.67 6.88 L23.83 7.49 L25.00 8.27 L26.17 9.12 L27.33 9.97 L28.50 10.70 L29.67 11.25 L30.83 11.55 L32.00 11.57 L33.17 11.31 L34.33 10.79 L35.50 10.08 L36.67 9.25 L37.83 8.39 L39.00 7.59 L40.17 6.96 L41.33 6.54 L42.50 6.40 L43.67 6.54 L44.83 6.96 L46.00 7.59 L47.17 8.39 L48.33 9.25 L49.50 10.08 L50.67 10.79 L51.83 11.31 L53.00 11.57 L54.17 11.55 L55.33 11.25 L56.50 10.70 L57.67 9.97 L58.83 9.12 L60.00 8.27"/>
      <path d="M4.00 18.20 L5.17 19.05 L6.33 19.81 L7.50 20.39 L8.67 20.73 L9.83 20.79 L11.00 20.57 L12.17 20.08 L13.33 19.39 L14.50 18.57 L15.67 17.71 L16.83 16.90 L18.00 16.24 L19.17 15.79 L20.33 15.60 L21.50 15.71 L22.67 16.08 L23.83 16.69 L25.00 17.47 L26.17 18.32 L27.33 19.17 L28.50 19.90 L29.67 20.45 L30.83 20.75 L32.00 20.77 L33.17 20.51 L34.33 19.99 L35.50 19.28 L36.67 18.45 L37.83 17.59 L39.00 16.79 L40.17 16.16 L41.33 15.74 L42.50 15.60 L43.67 15.74 L44.83 16.16 L46.00 16.79 L47.17 17.59 L48.33 18.45 L49.50 19.28 L50.67 19.99 L51.83 20.51 L53.00 20.77 L54.17 20.75 L55.33 20.45 L56.50 19.90 L57.67 19.17 L58.83 18.32 L60.00 17.47"/>
      <path d="M4.00 27.40 L5.17 28.25 L6.33 29.01 L7.50 29.59 L8.67 29.93 L9.83 29.99 L11.00 29.77 L12.17 29.28 L13.33 28.59 L14.50 27.77 L15.67 26.91 L16.83 26.10 L18.00 25.44 L19.17 24.99 L20.33 24.80 L21.50 24.91 L22.67 25.28 L23.83 25.89 L25.00 26.67 L26.17 27.52 L27.33 28.37 L28.50 29.10 L29.67 29.65 L30.83 29.95 L32.00 29.97 L33.17 29.71 L34.33 29.19 L35.50 28.48 L36.67 27.65 L37.83 26.79 L39.00 25.99 L40.17 25.36 L41.33 24.94 L42.50 24.80 L43.67 24.94 L44.83 25.36 L46.00 25.99 L47.17 26.79 L48.33 27.65 L49.50 28.48 L50.67 29.19 L51.83 29.71 L53.00 29.97 L54.17 29.95 L55.33 29.65 L56.50 29.10 L57.67 28.37 L58.83 27.52 L60.00 26.67"/>
      <path d="M4.00 36.60 L5.17 37.45 L6.33 38.21 L7.50 38.79 L8.67 39.13 L9.83 39.19 L11.00 38.97 L12.17 38.48 L13.33 37.79 L14.50 36.97 L15.67 36.11 L16.83 35.30 L18.00 34.64 L19.17 34.19 L20.33 34.00 L21.50 34.11 L22.67 34.48 L23.83 35.09 L25.00 35.87 L26.17 36.72 L27.33 37.57 L28.50 38.30 L29.67 38.85 L30.83 39.15 L32.00 39.17 L33.17 38.91 L34.33 38.39 L35.50 37.68 L36.67 36.85 L37.83 35.99 L39.00 35.19 L40.17 34.56 L41.33 34.14 L42.50 34.00 L43.67 34.14 L44.83 34.56 L46.00 35.19 L47.17 35.99 L48.33 36.85 L49.50 37.68 L50.67 38.39 L51.83 38.91 L53.00 39.17 L54.17 39.15 L55.33 38.85 L56.50 38.30 L57.67 37.57 L58.83 36.72 L60.00 35.87"/>
      <path d="M4.00 45.80 L5.17 46.65 L6.33 47.41 L7.50 47.99 L8.67 48.33 L9.83 48.39 L11.00 48.17 L12.17 47.68 L13.33 46.99 L14.50 46.17 L15.67 45.31 L16.83 44.50 L18.00 43.84 L19.17 43.39 L20.33 43.20 L21.50 43.31 L22.67 43.68 L23.83 44.29 L25.00 45.07 L26.17 45.92 L27.33 46.77 L28.50 47.50 L29.67 48.05 L30.83 48.35 L32.00 48.37 L33.17 48.11 L34.33 47.59 L35.50 46.88 L36.67 46.05 L37.83 45.19 L39.00 44.39 L40.17 43.76 L41.33 43.34 L42.50 43.20 L43.67 43.34 L44.83 43.76 L46.00 44.39 L47.17 45.19 L48.33 46.05 L49.50 46.88 L50.67 47.59 L51.83 48.11 L53.00 48.37 L54.17 48.35 L55.33 48.05 L56.50 47.50 L57.67 46.77 L58.83 45.92 L60.00 45.07"/>
      <path d="M4.00 55.00 L5.17 55.85 L6.33 56.61 L7.50 57.19 L8.67 57.53 L9.83 57.59 L11.00 57.37 L12.17 56.88 L13.33 56.19 L14.50 55.37 L15.67 54.51 L16.83 53.70 L18.00 53.04 L19.17 52.59 L20.33 52.40 L21.50 52.51 L22.67 52.88 L23.83 53.49 L25.00 54.27 L26.17 55.12 L27.33 55.97 L28.50 56.70 L29.67 57.25 L30.83 57.55 L32.00 57.57 L33.17 57.31 L34.33 56.79 L35.50 56.08 L36.67 55.25 L37.83 54.39 L39.00 53.59 L40.17 52.96 L41.33 52.54 L42.50 52.40 L43.67 52.54 L44.83 52.96 L46.00 53.59 L47.17 54.39 L48.33 55.25 L49.50 56.08 L50.67 56.79 L51.83 57.31 L53.00 57.57 L54.17 57.55 L55.33 57.25 L56.50 56.70 L57.67 55.97 L58.83 55.12 L60.00 54.27"/>
    </g>
    <g transform="translate(12.16 12.16) scale(0.62)">
      <g stroke="#000000" stroke-width="7.8" fill="none" stroke-linecap="round" stroke-linejoin="round">
        <path d="M2 32 L24 32"/>
        <path d="M24 32 L42 12 L58 12"/>
        <path d="M24 32 L58 32"/>
        <path d="M24 32 L42 52 L58 52"/>
      </g>
      <circle cx="24" cy="32" r="6" fill="#000000"/>
      <rect x="52.5" y="6.5" width="11" height="11" fill="#000000"/>
      <rect x="52.5" y="26.5" width="11" height="11" fill="#000000"/>
      <rect x="52.5" y="46.5" width="11" height="11" fill="#000000"/>
      <g stroke="#FFFFFF" stroke-width="2.8" fill="none" stroke-linecap="square" stroke-linejoin="miter">
        <path d="M2 32 L24 32"/>
        <path d="M24 32 L42 12 L58 12"/>
        <path d="M24 32 L58 32"/>
        <path d="M24 32 L42 52 L58 52"/>
      </g>
      <circle cx="24" cy="32" r="3.5" fill="#FFFFFF"/>
      <rect x="55" y="9" width="6" height="6" fill="#FFFFFF"/>
      <rect x="55" y="29" width="6" height="6" fill="#FFFFFF"/>
      <rect x="55" y="49" width="6" height="6" fill="#FFFFFF"/>
    </g>
    <rect x="0.75" y="0.75" width="62.5" height="62.5" fill="none" stroke="#6BE49A" stroke-width="1.5"/>
  </g>

  <!-- Wordmark — cap-height tuned to visually match the badge height -->
  <text x="88" y="36" class="gs-word" dominant-baseline="central">
    <tspan fill="#FFFFFF">go</tspan><tspan fill="#6BE49A">Signals</tspan>
  </text>
</svg>
